<?xml version="1.0" encoding="utf-8"?>
<!-- Generator: Adobe Illustrator 27.1.0, SVG Export Plug-In . SVG Version: 6.00 Build 0)  -->
<svg version="1.1" id="Capa_1" xmlns="http://www.w3.org/2000/svg" xmlns:xlink="http://www.w3.org/1999/xlink" x="0px" y="0px"
	 viewBox="-49 141 512 512" style="enable-background:new -49 141 512 512;" xml:space="preserve">
<style type="text/css">
	.st0{fill:#2A4997;}
	.st1{fill:#263364;}
	.st2{fill:#76C8DA;}
</style>
<circle class="st0" cx="207" cy="397" r="256"/>
<path class="st1" d="M293.02,341.58c-20.44,0-36.1,3.74-47.02,11.2l-49.37-48.71l0,0c-7.68-8.16-16.79-13.63-27.33-16.39
	c-15.17-4.07-51.41-3.31-124.53-3.31v220.75l147.46,147.46c4.88,0.28,9.8,0.43,14.76,0.43c118.46,0,218.12-80.47,247.32-189.73
	L349.91,358.86l0,0C336.69,345.51,316.93,341.58,293.02,341.58z"/>
<g>
	<path class="st2" d="M44.78,505.11V284.36c73.12,0,109.35-0.75,124.53,3.31c12.65,3.31,23.24,10.52,31.77,21.61
		c16.53,21.49,15.8,57.68,5.42,77.17c-9.39,17.62-25.23,28.6-41.86,32.22c-19.59,3.88-48.58,3.16-75.29,3.16v83.27L44.78,505.11
		L44.78,505.11z M89.35,321.7v62.64c45.16,0,62.77,1.46,73.56-14.3c7.16-10.47,7.01-27.04-2.03-37.04
		C149.58,320.51,137.24,321.7,89.35,321.7z"/>
	<path class="st2" d="M219.84,459.48l42.46-6.48c3.95,18.01,16.1,25.15,34.18,25.15c13.8,0,30.27-3.46,30.27-17.32
		c0-9.31-7.79-11.37-17.17-13.55c-34.13-7.53-55.76-14.4-64.9-20.63c-12.65-8.63-18.97-20.63-18.97-35.99
		c0-13.85,5.47-25.5,16.41-34.93c10.94-9.43,27.91-14.15,50.89-14.15c34.94,0,61.01,8.39,70.77,42.31l-39.9,7.38
		c-1.71-6.22-4.95-10.99-9.71-14.3c-10.9-7.57-35.92-5.74-44.34-0.3c-6.01,4.13-6.7,11.69-0.6,16.26
		c12.25,9.03,64.6,12.32,86.73,30.72c8.83,7.53,13.25,18.02,13.25,31.47c0,14.66-6.12,27.25-18.37,37.79
		c-12.25,10.54-30.37,15.81-54.36,15.81c-21.78,0-39.02-4.42-51.72-13.25C232.06,486.64,223.76,474.64,219.84,459.48z"/>
</g>
</svg>
